<svg height="48pt" viewBox="0 0 48 48" width="48pt" xmlns="http://www.w3.org/2000/svg" xmlns:xlink="http://www.w3.org/1999/xlink"><linearGradient id="a" gradientTransform="matrix(36 0 0 40 6 4)" gradientUnits="userSpaceOnUse" x1="0" x2="1" y1=".5" y2=".5"><stop offset="0" stop-color="#5433ff"/><stop offset=".51739130435" stop-color="#20bdff"/><stop offset=".98260869565" stop-color="#a5fecb"/></linearGradient><path d="m15.128 42.339-.273-.083c-1.806-.837-3.332-1.916-4.57-3.246-1.461-1.567-2.539-3.433-3.234-5.602-.701-2.168-1.051-4.566-1.051-7.183v-6.094l10-4.445v9.847 2.467c0 4.432 3.568 8 8 8 1.867 0 3.579-.635 4.931-1.707.005.008.005.008 0-.001.284-.21.548-.447.795-.7-.058.06-.123.112-.183.17 1.512-1.452 2.457-3.49 2.457-5.762v-17c0-.013-.002-.026-.002-.039v-.932c.001.001.003.001.004.002v-1.76l9.998-4.271v21.746c0 .03-.001.06-.004.089v.386c0 2.622-.359 5.029-1.078 7.216-.719 2.188-1.822 4.067-3.301 5.629-1.485 1.568-3.364 2.781-5.652 3.637-2.287.863-4.994 1.285-8.131 1.285l.006.012c-3.086 0-5.755-.442-8-1.322-.26-.102-.493-.217-.712-.339zm14.354-8.163h.004l.241-.584-.241.584zm-.003-.354c-.176.165-.358.322-.548.471-.02.016-.04.031-.06.047.02-.016.04-.031.06-.048.19-.148.372-.305.548-.47z" fill="url(#a)" fill-rule="evenodd"/></svg>